<?xml version="1.0" encoding="iso-8859-1"?>
<!-- Generator: Adobe Illustrator 18.0.0, SVG Export Plug-In . SVG Version: 6.00 Build 0)  -->
<!DOCTYPE svg PUBLIC "-//W3C//DTD SVG 1.1//EN" "http://www.w3.org/Graphics/SVG/1.1/DTD/svg11.dtd">
<svg version="1.1" id="Capa_1" xmlns="http://www.w3.org/2000/svg" xmlns:xlink="http://www.w3.org/1999/xlink" x="0px" y="0px"
	 viewBox="0 0 206.559 206.559" style="enable-background:new 0 0 206.559 206.559; fill: #fff;" xml:space="preserve">
<path d="M0,103.279c0,56.948,46.331,103.279,103.279,103.279s103.279-46.331,103.279-103.279S160.228,0,103.279,0
	S0,46.331,0,103.279z M170,103.279c0,36.79-29.931,66.721-66.721,66.721c-11.765,0-22.821-3.072-32.429-8.439L161.56,70.85
	C166.927,80.458,170,91.514,170,103.279z M103.279,36.559c11.765,0,22.821,3.072,32.429,8.439l-90.709,90.711
	c-5.368-9.608-8.44-20.664-8.44-32.43C36.559,66.489,66.489,36.559,103.279,36.559z"/>
<g>
</g>
<g>
</g>
<g>
</g>
<g>
</g>
<g>
</g>
<g>
</g>
<g>
</g>
<g>
</g>
<g>
</g>
<g>
</g>
<g>
</g>
<g>
</g>
<g>
</g>
<g>
</g>
<g>
</g>
</svg>
