<svg height="512pt" viewBox="0 0 512.10208 512" width="512pt" xmlns="http://www.w3.org/2000/svg"><path d="m68.832031 134.878906c-16.335937-11.203125-38.511719-8.140625-51.203125 7.070313-12.6875 15.207031-11.726562 37.574219 2.21875 51.636719l39.9375 40.023437zm0 0" fill="#d4e1f4"/><path d="m503.519531 401.117188c-8.859375 17.578124-21.0625 33.261718-35.925781 46.164062-42.582031 37.546875-107.519531 56.238281-181.675781 56.238281-2.132813 0-4.265625 0-6.398438-.171875-80.640625-1.28125-150.699219-29.78125-188.929687-71.679687-8.429688-9.101563-15.472656-19.394531-20.90625-30.550781-.511719-1.023438-.9375-2.046876-1.363282-3.070313-5.589843-12.457031-8.496093-25.945313-8.535156-39.597656v-166.652344c0-98.5625 77.910156-181.675781 176.46875-183.210937 14.292969-.265626 28.566406 1.226562 42.496094 4.4375 81.566406 18.578124 139.433594 91.105468 139.433594 174.761718v139.09375c-.21875 16.59375 3.929687 32.957032 12.035156 47.445313 11.261719 19.371093 35.242188 35.582031 73.300781 26.792969zm0 0" fill="#d4e1f4"/><path d="m460.851562 446.257812c-42.835937 36.949219-107.347656 55.980469-181.332031 57.089844-80.640625-1.28125-150.699219-29.78125-188.929687-71.679687-8.429688-9.101563-15.472656-19.394531-20.90625-30.550781-.511719-1.023438-.9375-2.046876-1.363282-3.070313v-221.78125c.234376-88.097656 71.816407-159.335937 159.914063-159.148437 10.835937-.027344 21.648437 1.089843 32.253906 3.328124 74.21875 14.929688 127.621094 80.113282 127.660157 155.820313v194.472656s0 54.101563 72.703124 75.519531zm0 0" fill="#e3e7f2"/><path d="m476.125 193.585938-63.402344 63.402343-17.492187-17.492187-36.777344-36.863282 63.316406-63.316406c11.351563-11.367187 28.578125-14.464844 43.179688-7.765625.082031 0 0 .085938 0 .085938 4.171875 1.835937 7.964843 4.441406 11.175781 7.679687 7.214844 7.1875 11.265625 16.953125 11.265625 27.132813 0 10.183593-4.050781 19.949219-11.265625 27.136719zm0 0" fill="#d4e1f4"/><path d="m458.121094 176.519531-74.070313 79.53125-25.597656-53.417969 63.316406-63.316406c11.351563-11.367187 28.578125-14.464844 43.179688-7.765625.082031 0 0 .085938 0 .085938 7.863281 14.828125 5.089843 33.058593-6.828125 44.882812zm0 0" fill="#e3e7f2"/><path d="m162.183594 183.519531c0-25.921875-11.460938-46.933593-25.597656-46.933593-14.140626 0-25.601563 21.011718-25.601563 46.933593 0 25.917969 11.460937 46.929688 25.601563 46.929688 14.136718 0 25.597656-21.011719 25.597656-46.929688zm0 0" fill="#7facfa"/><path d="m145.117188 174.984375c0-16.496094-5.730469-29.867187-12.796876-29.867187-7.070312 0-12.800781 13.371093-12.800781 29.867187s5.730469 29.867187 12.800781 29.867187c7.066407 0 12.796876-13.371093 12.796876-29.867187zm0 0" fill="#e3e7f2"/><path d="m247.519531 324.316406c0-42.414062-19.105469-76.796875-42.667969-76.796875s-42.667968 34.382813-42.667968 76.796875c0 42.417969 19.105468 76.800782 42.667968 76.800782s42.667969-34.382813 42.667969-76.800782zm0 0" fill="#7facfa"/><path d="m298.71875 183.519531c0-25.921875-11.460938-46.933593-25.601562-46.933593-14.136719 0-25.597657 21.011718-25.597657 46.933593 0 25.917969 11.460938 46.929688 25.597657 46.929688 14.140624 0 25.601562-21.011719 25.601562-46.929688zm0 0" fill="#7facfa"/><path d="m281.652344 174.984375c0-16.496094-5.730469-29.867187-12.800782-29.867187-7.070312 0-12.800781 13.371093-12.800781 29.867187s5.730469 29.867187 12.800781 29.867187c7.070313 0 12.800782-13.371093 12.800782-29.867187zm0 0" fill="#e3e7f2"/><path d="m241.460938 379.1875c-7.511719 21.929688-21.078126 21.929688-36.609376 21.929688s-29.097656 0-36.609374-21.929688c7.707031-12.871094 21.605468-20.75 36.609374-20.75 15.003907 0 28.902344 7.878906 36.609376 20.75zm0 0" fill="#d4e1f4"/><path d="m502.308594 403.257812c.382812-.730468.851562-1.40625 1.210937-2.140624-2.40625.570312-4.753906 1.023437-7.042969 1.367187 1.921876.339844 3.824219.597656 5.832032.773437zm0 0" fill="#fff"/><path d="m72.585938 128.050781c7.804687.003907 15.425781 2.382813 21.84375 6.828125v.179688c22.117187-70.519532 85.019531-120.410156 158.722656-125.886719-5.589844-.433594-11.207032-.691406-16.898438-.585937-74.464844 1.839843-140.085937 49.398437-165.007812 119.59375.484375-.019532.886718-.128907 1.339844-.128907zm0 0" fill="#fff"/><path d="m59.785156 233.609375v124.839844c.039063 13.652343 2.945313 27.140625 8.535156 39.597656.425782 1.023437.851563 2.046875 1.363282 3.070313 5.433594 11.15625 12.476562 21.449218 20.90625 30.550781 38.230468 41.898437 108.289062 70.398437 188.929687 71.679687 2.132813.171875 4.265625.171875 6.398438.171875 5.238281 0 10.429687-.121093 15.574219-.308593-79.105469-2.066407-147.628907-30.277344-185.300782-71.542969-8.429687-9.101563-15.476562-19.394531-20.90625-30.550781-.511718-1.023438-.941406-2.046876-1.367187-3.070313-5.585938-12.457031-8.492188-25.945313-8.53125-39.597656v-124.839844l-39.9375-40.023437c-9.375-9.28125-13.292969-22.742188-10.367188-35.605469 2.929688-12.863281 12.289063-23.304688 24.753907-27.617188-16.890626-6.042969-35.714844.441407-45.304688 15.601563-9.589844 15.164062-7.378906 34.949218 5.316406 47.621094zm0 0" fill="#fff"/><path d="m60.707031 132.316406c11.933594-37.136718 34.8125-69.800781 65.636719-93.703125 31.476562-24.363281 69.988281-37.890625 109.78125-38.5624998l.257812 17.0664068c-36.121093.59375-71.074218 12.867187-99.636718 34.988281-28.070313 21.773437-48.910156 51.515625-59.792969 85.332031zm0 0" fill="#fff"/><g fill="#428dff"><path d="m93.78125 79.503906c.234375.488282.546875.933594.921875 1.324219.394531.414063.820313.796875 1.273437 1.144531 1.835938 1.308594 4.082032 1.914063 6.332032 1.703125 1.078125-.152343 2.117187-.511719 3.0625-1.054687 2.796875-1.695313 4.433594-4.792969 4.265625-8.058594-.125-1.101562-.449219-2.171875-.957031-3.15625-1.476563-3.136719-4.730469-5.042969-8.191407-4.796875-2.339843.226563-4.488281 1.378906-5.972656 3.203125-1.402344 1.871094-2.066406 4.195312-1.859375 6.527344l.382812 1.613281c.175782.546875.425782 1.070313.742188 1.550781zm0 0"/><path d="m51.25 237.148438v121.300781c.074219 16.066406 3.742188 31.90625 10.746094 46.363281 30.726562 64.152344 120.71875 107.238281 223.921875 107.238281 109.097656 0 191.191406-39.039062 225.28125-107.109375 1.480469-2.957031 1.121093-6.503906-.925781-9.101562-2.046876-2.597656-5.410157-3.78125-8.632813-3.035156-40.40625 9.386718-58.214844-12.796876-64-22.75-7.355469-13.1875-11.121094-28.078126-10.921875-43.175782v-71.800781l55.464844-55.464844c13.410156-13.433593 17.410156-33.617187 10.140625-51.148437-7.273438-17.527344-24.390625-28.953125-43.367188-28.945313-11.433593.042969-22.449219 4.292969-30.941406 11.945313-24.542969-78.183594-96.992187-131.3906252-178.9375-131.4140628h-2.953125c-39.792969.6718748-78.304688 14.1992188-109.78125 38.5624998l-6.824219 5.71875c-1.808593 1.445313-2.933593 3.582031-3.09375 5.890625-.164062 2.3125.648438 4.582032 2.238281 6.269532 3.160157 3.332031 8.34375 3.703124 11.949219.851562l6.246094-5.207031c28.511719-22.09375 63.40625-34.378907 99.472656-35.019531h2.78125c77.714844-.003907 145.582031 52.59375 164.964844 127.855468l-51.660156 51.660156c-3.234375 3.347657-3.1875 8.671876.105469 11.960938 3.289062 3.292969 8.613281 3.339844 11.960937.105469l63.359375-63.359375c11.824219-11.277344 30.417969-11.277344 42.242188 0 11.640624 11.671875 11.640624 30.566406 0 42.238281l-57.875 57.898437-.058594.0625-5.402344 5.402344c-2.027344 2.03125-2.898438 4.949219-2.3125 7.761719s2.542969 5.140625 5.214844 6.195313v61.980468c-.207032 18.101563 4.339844 35.941406 13.191406 51.738282 13.300781 22.613281 38.40625 35.582031 64.546875 33.335937-35.199219 53.011719-107.425781 83.03125-201.472656 83.03125-95.257813 0-181.015625-40.105469-208.527344-97.511719-5.902344-12.164062-9.003906-25.5-9.070313-39.023437v-166.644531c-.011718-18.429688 2.894532-36.746094 8.617188-54.265626v-.050781c3.410156-10.3125 7.714844-20.304687 12.867188-29.867187 2.042968-4.132813.578124-9.140625-3.371094-11.519532-1.976563-1.175781-4.355469-1.476562-6.566406-.832031-2.210938.648438-4.050782 2.1875-5.082032 4.246094-4.125 7.53125-7.6875 15.359375-10.65625 23.414063-20.664062-8.203126-44.25-.753907-56.449218 17.832031-12.199219 18.589843-9.648438 43.191406 6.101562 58.882812zm-25.367188-91.792969c8.730469-8.457031 21.664063-10.898438 32.878907-6.210938-4.941407 17.117188-7.46875 34.84375-7.511719 52.660157v21.179687l-25.367188-25.421875c-5.609374-5.589844-8.765624-13.183594-8.765624-21.101562 0-7.921876 3.15625-15.515626 8.765624-21.105469zm0 0"/><path d="m136.585938 128.050781c-19.457032 0-34.132813 23.84375-34.132813 55.46875 0 31.621094 14.675781 55.464844 34.132813 55.464844 19.457031 0 34.132812-23.84375 34.132812-55.464844 0-31.625-14.675781-55.46875-34.132812-55.46875zm0 93.867188c-6.957032 0-17.066407-14.960938-17.066407-38.398438 0-23.441406 10.109375-38.402343 17.066407-38.402343 6.953124 0 17.066406 14.960937 17.066406 38.402343 0 23.4375-10.113282 38.398438-17.066406 38.398438zm0 0"/><path d="m204.851562 238.984375c-28.707031 0-51.199218 37.488281-51.199218 85.332031-.699219 18.90625 1.410156 37.8125 6.261718 56.097656.160157 1.105469.542969 2.167969 1.117188 3.125 8.679688 23.398438 24.390625 26.113282 43.820312 26.113282 19.429688 0 35.140626-2.714844 43.820313-26.113282.574219-.957031.957031-2.019531 1.117187-3.125 4.851563-18.285156 6.960938-37.191406 6.261719-56.097656 0-47.84375-22.492187-85.332031-51.199219-85.332031zm0 153.601563c-11.621093 0-21.007812 0-26.972656-12.347657 6.449219-8.359375 16.414063-13.257812 26.972656-13.257812 10.558594 0 20.523438 4.898437 26.972657 13.257812-5.964844 12.347657-15.351563 12.347657-26.972657 12.347657zm32.035157-31.34375c-18.6875-15.101563-45.382813-15.101563-64.070313 0-1.5625-12.246094-2.265625-24.582032-2.097656-36.925782 0-40.226562 17.988281-68.265625 34.132812-68.265625 16.144532 0 34.132813 28.039063 34.132813 68.265625.167969 12.34375-.535156 24.679688-2.097656 36.925782zm0 0"/><path d="m307.25 183.519531c0-31.625-14.675781-55.46875-34.132812-55.46875-19.453126 0-34.132813 23.84375-34.132813 55.46875 0 31.621094 14.679687 55.464844 34.132813 55.464844 19.457031 0 34.132812-23.84375 34.132812-55.464844zm-51.199219 0c0-23.441406 10.113281-38.402343 17.066407-38.402343 6.957031 0 17.066406 14.960937 17.066406 38.402343 0 23.4375-10.109375 38.398438-17.066406 38.398438-6.953126 0-17.066407-14.960938-17.066407-38.398438zm0 0"/></g></svg>